<svg xmlns="http://www.w3.org/2000/svg" width="1100" height="650" viewBox="0 0 1100 650">
  <style>
    text { font-family: -apple-system, BlinkMacSystemFont, "Segoe UI", sans-serif; fill: #18222f; }
    .title { font-size: 22px; font-weight: 700; }
    .subtitle { font-size: 12px; fill: #506070; }
    .axis { stroke: #b9c3cf; stroke-width: 1; }
    .grid { stroke: #e4e9ef; stroke-width: 1; }
    .label { font-size: 12px; fill: #29384a; }
    .small { font-size: 11px; fill: #5c6978; }
    .value { font-size: 12px; font-weight: 700; fill: #111827; }
    .note { font-size: 11px; fill: #667085; }
  </style>
  <rect x="0" y="0" width="1100" height="650" fill="#ffffff"/>
  <text class="title" x="90" y="36">Qwen Air Throughput Progression</text>
  <text class="subtitle" x="90" y="58">From first proof-of-life to quantum-guided strict record on a 2017 Intel MacBook Air</text>
  <line class="grid" x1="90" y1="505.0" x2="1055" y2="505.0"/>
  <text class="small" text-anchor="end" x="80" y="509.0">0</text>
  <line class="grid" x1="90" y1="458.0" x2="1055" y2="458.0"/>
  <text class="small" text-anchor="end" x="80" y="462.0">2</text>
  <line class="grid" x1="90" y1="411.0" x2="1055" y2="411.0"/>
  <text class="small" text-anchor="end" x="80" y="415.0">4</text>
  <line class="grid" x1="90" y1="364.0" x2="1055" y2="364.0"/>
  <text class="small" text-anchor="end" x="80" y="368.0">6</text>
  <line class="grid" x1="90" y1="317.0" x2="1055" y2="317.0"/>
  <text class="small" text-anchor="end" x="80" y="321.0">8</text>
  <line class="grid" x1="90" y1="270.0" x2="1055" y2="270.0"/>
  <text class="small" text-anchor="end" x="80" y="274.0">10</text>
  <line class="grid" x1="90" y1="223.0" x2="1055" y2="223.0"/>
  <text class="small" text-anchor="end" x="80" y="227.0">12</text>
  <line class="grid" x1="90" y1="176.0" x2="1055" y2="176.0"/>
  <text class="small" text-anchor="end" x="80" y="180.0">14</text>
  <line class="grid" x1="90" y1="129.0" x2="1055" y2="129.0"/>
  <text class="small" text-anchor="end" x="80" y="133.0">16</text>
  <line class="grid" x1="90" y1="82.0" x2="1055" y2="82.0"/>
  <text class="small" text-anchor="end" x="80" y="86.0">18</text>
  <line class="axis" x1="90" y1="82" x2="90" y2="505"/>
  <line class="axis" x1="90" y1="505" x2="1055" y2="505"/>
  <polyline points="90.0,502.9 227.9,448.6 365.7,352.5 503.6,328.8 641.4,196.7 779.3,178.1 917.1,175.3 1055.0,116.5" fill="none" stroke="#0f766e" stroke-width="4" stroke-linejoin="round"/>
  <circle cx="90.0" cy="502.9" r="7" fill="#0f766e" stroke="#ffffff" stroke-width="2"/>
  <text class="value" text-anchor="middle" x="90.0" y="489.9">0.09</text>
  <text class="label" text-anchor="middle" x="90.0" y="529.0">Out-of-box</text>
  <circle cx="227.9" cy="448.6" r="7" fill="#0f766e" stroke="#ffffff" stroke-width="2"/>
  <text class="value" text-anchor="middle" x="227.9" y="435.6">2.40</text>
  <text class="label" text-anchor="middle" x="227.9" y="529.0">Early stable</text>
  <circle cx="365.7" cy="352.5" r="7" fill="#0f766e" stroke="#ffffff" stroke-width="2"/>
  <text class="value" text-anchor="middle" x="365.7" y="339.5">6.49</text>
  <text class="label" text-anchor="middle" x="365.7" y="529.0">Manual frontier</text>
  <circle cx="503.6" cy="328.8" r="7" fill="#0f766e" stroke="#ffffff" stroke-width="2"/>
  <text class="value" text-anchor="middle" x="503.6" y="315.8">7.50</text>
  <text class="label" text-anchor="middle" x="503.6" y="529.0">Pi 5 report</text>
  <circle cx="641.4" cy="196.7" r="7" fill="#0f766e" stroke="#ffffff" stroke-width="2"/>
  <text class="value" text-anchor="middle" x="641.4" y="183.7">13.12</text>
  <text class="label" text-anchor="middle" x="641.4" y="529.0">QPU boom</text>
  <circle cx="779.3" cy="178.1" r="7" fill="#0f766e" stroke="#ffffff" stroke-width="2"/>
  <text class="value" text-anchor="middle" x="779.3" y="165.1">13.91</text>
  <text class="label" text-anchor="middle" x="779.3" y="529.0">Clean-room</text>
  <circle cx="917.1" cy="175.3" r="7" fill="#0f766e" stroke="#ffffff" stroke-width="2"/>
  <text class="value" text-anchor="middle" x="917.1" y="162.3">14.03</text>
  <text class="label" text-anchor="middle" x="917.1" y="529.0">Strict Mars</text>
  <circle cx="1055.0" cy="116.5" r="7" fill="#dc2626" stroke="#ffffff" stroke-width="2"/>
  <text class="value" text-anchor="middle" x="1055.0" y="103.5">16.53</text>
  <text class="label" text-anchor="middle" x="1055.0" y="529.0">Corrupted edge</text>
  <text class="note" x="90" y="625">Milestones combine logged DB rows with notebook milestones explicitly marked in paper/data/milestones.csv.</text>
</svg>
